Coordinates
nRows=10
nColumns=38

# SIMM Motion File Header:
name Coordinates
datacolumns 38
datarows 10
otherdata 1
range 0.72711999999999999000 0.73612000000000000000

Units are S.I. units (second, meters, Newtons, ...)
Angles are in degrees.

endheader
time	pelvis_tilt	pelvis_list	pelvis_rotation	pelvis_tx	pelvis_ty	pelvis_tz	hip_flexion_r	hip_adduction_r	hip_rotation_r	knee_angle_r	ankle_angle_r	subtalar_angle_r	mtp_angle_r	hip_flexion_l	hip_adduction_l	hip_rotation_l	knee_angle_l	ankle_angle_l	subtalar_angle_l	mtp_angle_l	lumbar_extension	lumbar_bending	lumbar_rotation	arm_flex_r	arm_add_r	arm_rot_r	elbow_flex_r	pro_sup_r	wrist_flex_r	wrist_dev_r	arm_flex_l	arm_add_l	arm_rot_l	elbow_flex_l	pro_sup_l	wrist_flex_l	wrist_dev_l
      0.72711999999999999000	      3.05218497386432700000	      5.39332977739492670000	      5.30532862310797350000	      0.48690513248477174000	      0.99874671373042911000	     -0.31731002148867538000	     24.29527393660026400000	     -7.57853587462122840000	     -1.69120602180709770000	    -86.33575462903883100000	     -5.33512521349871790000	     -0.00000000000015626124	      0.00000000000006949168	      4.17920062763177120000	      8.78664009729559940000	      1.97050738768267600000	    -29.25872785694431100000	     18.03557561916571900000	      0.00000000000001769531	      0.00000000000000115173	    -17.65974777841611500000	     -6.00486597361280690000	     -7.38277752433771630000	    -20.52903698673639000000	    -21.69841873254522100000	      7.11280366507076780000	    108.42776259489963000000	     74.04497892293702000000	     -0.00000000000000397179	      0.00000000000011174617	     -7.31410170500207710000	    -29.96447409088007800000	      4.08961184943876250000	    113.10034638811545000000	     94.21116733511813400000	      0.00000000000003975074	     -0.00000000000000638380
      0.72811999999999999000	      3.02853205505639830000	      5.34144964413969880000	      5.31004100632981490000	      0.48691665991736022000	      0.99919345571404361000	     -0.31729060044194374000	     24.47016713311287400000	     -7.51058993158776730000	     -1.65646903133938770000	    -86.18047328706144600000	     -5.29790500085616150000	     -0.00000000000015675729	      0.00000000000006974235	      3.95549823394387490000	      8.72701014605152460000	      2.03700596586934020000	    -29.03257694629958200000	     17.99767474036304200000	      0.00000000000001791191	      0.00000000000000122208	    -17.62822814681596000000	     -5.92976378468645930000	     -7.45127174241616070000	    -20.66355461659626500000	    -21.71107641994750300000	      6.99336430747761730000	    108.50019481046421000000	     73.87784635355353700000	     -0.00000000000000399546	      0.00000000000011203385	     -7.22715628008649170000	    -29.93005492335303300000	      4.14419120697832620000	    113.10833236621694000000	     94.22016757049743800000	      0.00000000000003990487	     -0.00000000000000639384
      0.72911999999999999000	      3.00398872508449740000	      5.28743351557653000000	      5.31522328137996870000	      0.48693366434270535000	      0.99964573449189498000	     -0.31727251584829669000	     24.64272775453610400000	     -7.44074630180597650000	     -1.62379512619544290000	    -86.01826550757472500000	     -5.26098564128533400000	     -0.00000000000015725499	      0.00000000000006999223	      3.73090518763865870000	      8.66537762043036610000	      2.10518668120073380000	    -28.80263157143769000000	     17.95678365965631700000	      0.00000000000001813892	      0.00000000000000127023	    -17.59471128899909000000	     -5.85189473210566380000	     -7.51963571755514340000	    -20.79889035462887000000	    -21.72595982353351500000	      6.87402660467969810000	    108.57624757156346000000	     73.71125219216131100000	     -0.00000000000000401851	      0.00000000000011231947	     -7.14400974086059830000	    -29.89520491103997600000	      4.19892725063992070000	    113.12009293761685000000	     94.22525310734728500000	      0.00000000000004005931	     -0.00000000000000639642
      0.73011999999999999000	      2.97857366451625220000	      5.23129724716107170000	      5.32086513055094910000	      0.48695618210575181000	      1.00010339145583950000	     -0.31725572442182592000	     24.81290807831493000000	     -7.36904792483402550000	     -1.59317685586538120000	    -85.84916662177894900000	     -5.22427912512655720000	     -0.00000000000015775069	      0.00000000000007024275	      3.50545077499867160000	      8.60172109465179170000	      2.17492034668377960000	    -28.56896817035026400000	     17.91285907248677100000	      0.00000000000001836257	      0.00000000000000130410	    -17.55920491976303300000	     -5.77128210984571940000	     -7.58783909204724870000	    -20.93503677733734800000	    -21.74304562738220200000	      6.75478664142932140000	    108.65578075594392000000	     73.54551929263827500000	     -0.00000000000000404097	      0.00000000000011260600	     -7.06460221750335380000	    -29.85995245965361300000	      4.25387253345472250000	    113.13551837212839000000	     94.22661034133574300000	      0.00000000000004021340	     -0.00000000000000640560
      0.73111999999999999000	      2.95230811562043090000	      5.17306099141160750000	      5.32695412495739080000	      0.48698423888723824000	      1.00056627060715280000	     -0.31724018036123813000	     24.98066091016612600000	     -7.29554159582791240000	     -1.56460371371759450000	    -85.67321471242947000000	     -5.18769979255762600000	     -0.00000000000015824840	      0.00000000000007049417	      3.27916708325817470000	      8.53602378007031250000	      2.24607286560685450000	    -28.33167299846396900000	     17.86585294286809100000	      0.00000000000001858901	      0.00000000000000132670	    -17.52172228101614200000	     -5.68795420137478660000	     -7.65585351509906250000	    -21.07198184944253300000	    -21.76231106082145300000	      6.63564385274195610000	    108.73865257495824000000	     73.38095958414778900000	     -0.00000000000000406443	      0.00000000000011289106	     -6.98887567158570100000	    -29.82432445944444800000	      4.30907271407296120000	    113.15449877311208000000	     94.22443500904177000000	      0.00000000000004036788	     -0.00000000000000642423
      0.73211999999999999000	      2.92521565670100130000	      5.11274921813263820000	      5.33347577873003240000	      0.48701784961526323000	      1.00103421868975450000	     -0.31722583533712728000	     25.14593986877147500000	     -7.22027780398851250000	     -1.53806214079441750000	    -85.49045056788136800000	     -5.15116455865705360000	     -0.00000000000015874925	      0.00000000000007074610	      3.05208906752033380000	      8.46827375707832710000	      2.31850567900059360000	    -28.09084193579006300000	     17.81571391444688500000	      0.00000000000001882315	      0.00000000000000135314	    -17.48228194917685800000	     -5.60194431868367460000	     -7.72365264040664190000	    -21.20970902224229000000	    -21.78373371770636200000	      6.51660081075566300000	    108.82471984277119000000	     73.21787252540140400000	     -0.00000000000000408807	      0.00000000000011317728	     -6.91677394476019900000	    -29.78834641387320300000	      4.36456659447462500000	    113.17692435588390000000	     94.21893090735102300000	      0.00000000000004052279	     -0.00000000000000644559
      0.73311999999999999000	      2.89732198414718840000	      5.05039072373798530000	      5.34041359378312390000	      0.48705701840601107000	      1.00150708509917610000	     -0.31721263845957515000	     25.30869966451586000000	     -7.14331055206510260000	     -1.51353552203033970000	    -85.30091762865751500000	     -5.11459313736311840000	     -0.00000000000015925086	      0.00000000000007099821	      2.82425458061103510000	      8.39846417645454400000	      2.39207619010927310000	    -27.84658012814563900000	     17.76238716333526900000	      0.00000000000001906798	      0.00000000000000137275	    -17.44090764451049900000	     -5.51329083483737210000	     -7.79121211173372070000	    -21.34819733643014300000	    -21.80729137073794600000	      6.39766301284972720000	    108.91383824384583000000	     73.05654355802668900000	     -0.00000000000000411081	      0.00000000000011346377	     -6.84824281205809000000	    -29.75204256360946100000	      4.42038615890919660000	    113.20268572397960000000	     94.21030861289786200000	      0.00000000000004067750	     -0.00000000000000647196
      0.73411999999999999000	      2.86865469965290700000	      4.98601862922022490000	      5.34774909917908040000	      0.48710173851348215000	      1.00198472172264160000	     -0.31720053623550215000	     25.46889636952247600000	     -7.06469716034779700000	     -1.49100418078869220000	    -85.10466193060311500000	     -5.07790826254111050000	     -0.00000000000015975449	      0.00000000000007125015	      2.59570437621991430000	      8.32659343587767790000	      2.46663817670558850000	    -27.59900153756433400000	     17.70581350307081400000	      0.00000000000001932254	      0.00000000000000139673	    -17.39762804252803400000	     -5.42203720553320690000	     -7.85850953767027600000	    -21.48742152675673400000	    -21.83296178707885500000	      6.27883866739462880000	    109.00586260040322000000	     72.89724258745177100000	     -0.00000000000000413405	      0.00000000000011374564	     -6.78323002987830130000	    -29.71543600942523300000	      4.47655662079042660000	    113.23167414127485000000	     94.19878420592927200000	      0.00000000000004083244	     -0.00000000000000650048
      0.73512000000000000000	      2.83924311272379090000	      4.91967035878708090000	      5.35546190039834520000	      0.48715199229327188000	      1.00246698307481540000	     -0.31718947255998475000	     25.62648763956335100000	     -6.98449806884194580000	     -1.47044539112334570000	    -84.90173204077112200000	     -5.04103588582902340000	     -0.00000000000016026054	      0.00000000000007150120	      2.36648209190271870000	      8.25266535121940770000	      2.54204225208056970000	    -27.34822866697765800000	     17.64593105475102100000	      0.00000000000001956497	      0.00000000000000140012	    -17.35247659425611000000	     -5.32823195718851130000	     -7.92552444624254090000	    -21.62735213560094000000	    -21.86072256073271800000	      6.16013845698484990000	    109.10064714056143000000	     72.74022271181583200000	     -0.00000000000000415692	      0.00000000000011402771	     -6.72168532453968210000	    -29.67854884398405300000	      4.53309653518370230000	    113.26378177536674000000	     94.18457803271097400000	      0.00000000000004098682	     -0.00000000000000653601
      0.73612000000000000000	      2.80911811341354410000	      4.85138753049611800000	      5.36352972334321710000	      0.48720775137424804000	      1.00295372635681270000	     -0.31717938869663054000	     25.78143279792679000000	     -6.90277656146752960000	     -1.45183340580320670000	    -84.69217893480930600000	     -5.00390531341720730000	     -0.00000000000016076530	      0.00000000000007175276	      2.13663405120592740000	      8.17668917504869340000	      2.61813629995140930000	    -27.09439201427510500000	     17.58267550464730500000	      0.00000000000001981060	      0.00000000000000139590	    -17.30549136923069000000	     -5.23192857215105180000	     -7.99223814796924350000	    -21.76795567958863100000	    -21.89055095670017400000	      6.04157525274076250000	    109.19804576152650000000	     72.58571955866688100000	     -0.00000000000000417953	      0.00000000000011430851	     -6.66356026200066330000	    -29.64140228968084400000	      4.59001807702669670000	    113.29890186816168000000	     94.16791356072295100000	      0.00000000000004114121	     -0.00000000000000657717
